<?xml version="1.0" encoding="utf-8"?>
<!-- Generator: Adobe Illustrator 18.1.1, SVG Export Plug-In . SVG Version: 6.00 Build 0)  -->
<svg version="1.1" id="Layer_1" xmlns="http://www.w3.org/2000/svg" xmlns:xlink="http://www.w3.org/1999/xlink" x="0px" y="0px"
	 viewBox="0 0 216.9 216.9" enable-background="new 0 0 216.9 216.9" xml:space="preserve">
<g>
	<g>
		<defs>
			<circle id="SVGID_1_" cx="108.5" cy="108.5" r="108.5"/>
		</defs>
		<clipPath id="SVGID_2_">
			<use xlink:href="#SVGID_1_"  overflow="visible"/>
		</clipPath>
		<circle clip-path="url(#SVGID_2_)" fill="#F3F3F3" cx="108.5" cy="108.5" r="108.5"/>
		<g clip-path="url(#SVGID_2_)">
			<path fill="#A7D4D8" d="M70.6,142.4c-0.3,0-0.8,0.2-1.5,0.6c-21.8,13.4-35.3,37.2-40,62.8c-0.6,3.2-0.9,6.3-1.1,9.7
				c-0.1,0.8-0.1,2.2-0.2,2.2h82.3h78.9c-0.1,0-0.1-1.4-0.2-2.2c-0.3-3.4-0.6-6.6-1.1-9.7c-4.7-25.6-18.1-49.4-40-62.8
				c-0.7-0.4-1.2-0.6-1.5-0.6c-0.3,0,0,0.3-0.6,0.8c-10.3,8.3-23.6,12.9-35.5,13c-15.9,0-26.9-4.6-37.2-13
				C72.3,142.7,71,142.4,70.6,142.4z"/>
			<path fill="#A7D4D8" d="M153.3,97.5c0-24-18.3-43.6-43.2-43.7c-28.8,0.1-44,19.7-44,43.7c0,11.7,4.1,22.7,12.4,31
				c8.2,8.2,18.7,12.8,31.6,12.8c8.9-0.1,21.7-4.6,29.9-12.8C148.3,120.2,153.3,109.2,153.3,97.5z"/>
		</g>
	</g>
</g>
</svg>
